<svg xmlns="http://www.w3.org/2000/svg" aria-hidden="true" style="position:absolute;width:0;height:0;overflow:hidden">
  <defs>
    <symbol id="icon-menu" viewBox="0 0 32 32">
      <path fill="none" stroke="#447d5a" stroke-linecap="round" stroke-linejoin="round" stroke-width="2.462" d="M4 16h24M4 24h24M4 8h24" style="stroke:var(--color1, #447d5a)"/>
    </symbol>
    <symbol id="icon-arrow-back" viewBox="0 0 32 32">
      <path d="M1.158 14.492a2.134 2.134 0 0 0 0 3.017l13.576 13.576a2.134 2.134 0 0 0 3.017-3.017L5.683 16 17.751 3.932A2.134 2.134 0 0 0 14.734.915L1.158 14.491zM31.467 16v-2.133h-28.8v4.267h28.8v-2.133z"/>
    </symbol>
    <symbol id="icon-arrow-forward" viewBox="0 0 32 32">
      <path stroke-linecap="round" stroke-linejoin="round" stroke-width="2.909" d="M3.879 16h24.242m0 0L21.05 8.727M28.121 16l-7.071 7.273"/>
    </symbol>
    <symbol id="icon-chart-column" viewBox="0 0 32 32">
      <path fill="none" stroke="#447d5a" stroke-linecap="round" stroke-linejoin="round" stroke-width="1.939" d="M4.364 4v21.333c0 .707.272 1.386.757 1.886S6.264 28 6.949 28h20.687m-3.878-5.333V12m-6.465 10.667v-16m-6.465 16v-4" style="stroke:var(--color1, #447d5a)"/>
    </symbol>
    <symbol id="icon-chart-no-axes-combined" viewBox="0 0 32 32">
      <path fill="none" stroke="#41c99e" stroke-linecap="round" stroke-linejoin="round" stroke-width="3.2" d="M16 21.333V28m-5.333-9.333V28M5.333 13.333V28M2.667 4l11.528 11.528a.667.667 0 0 0 .944 0l4.389-4.389a.665.665 0 0 1 .942 0L29.333 20m-2.666 4v4m-5.334-9.333V28" style="stroke:var(--color2, #41c99e)"/>
    </symbol>
    <symbol id="icon-clock" viewBox="0 0 32 32">
      <path fill="none" stroke="#0900ff" stroke-linecap="round" stroke-linejoin="round" stroke-width="3.2" d="M16 8v8l5.333 2.667m8-2.667c0 7.364-5.97 13.333-13.333 13.333S2.667 23.363 2.667 16C2.667 8.636 8.637 2.667 16 2.667S29.333 8.637 29.333 16z" style="stroke:var(--color3, #0900ff)"/>
    </symbol>
    <symbol id="icon-close" viewBox="0 0 32 32">
      <path d="M21.421 11.993a.992.992 0 0 0 .305-.71 1.005 1.005 0 0 0-.62-.935 1.01 1.01 0 0 0-.773.006.996.996 0 0 0-.325.224L16 14.585l-4.007-4.007a1.013 1.013 0 0 0-.714-.318.993.993 0 0 0-.725.293.992.992 0 0 0-.293.725 1.001 1.001 0 0 0 .318.714L14.583 16l-4.007 4.007a.996.996 0 0 0 .025 1.388 1.002 1.002 0 0 0 1.388.025l4.009-4.007 4.007 4.008a.996.996 0 0 0 1.388-.025 1.002 1.002 0 0 0 .025-1.388L17.414 16l4.005-4.007z"/>
    </symbol>
    <symbol id="icon-arrow-right" viewBox="0 0 32 32">
      <path d="M10.759 3.588a1.961 1.961 0 0 0 0 2.774l9.708 9.708-9.708 9.708a1.96 1.96 0 0 0 .024 2.75 1.961 1.961 0 0 0 2.75.024l11.095-11.095a1.961 1.961 0 0 0 0-2.774L13.533 3.588a1.961 1.961 0 0 0-2.774 0z"/>
    </symbol>
    <symbol id="icon-arrow-left" viewBox="0 0 32 32">
      <path d="M20.999 28.171a1.961 1.961 0 0 0 0-2.774l-9.708-9.708 9.708-9.708a1.96 1.96 0 0 0-.024-2.75 1.964 1.964 0 0 0-2.75-.024L7.13 14.302a1.961 1.961 0 0 0 0 2.774l11.095 11.095a1.961 1.961 0 0 0 2.774 0z"/>
    </symbol>
    <symbol id="icon-euro" viewBox="0 0 32 32">
      <path fill="none" stroke="#00a806" stroke-linecap="round" stroke-linejoin="round" stroke-width="3.2" d="M5.333 13.333h16m-16 5.334h12m8-10.667A10.27 10.27 0 0 0 18.4 5.333a10.517 10.517 0 0 0-7.409 3.18A10.549 10.549 0 0 0 8 16c0 5.867 4.667 10.667 10.4 10.667 2.667 0 5.067-1.067 6.933-2.667" style="stroke:var(--color4, #00a806)"/>
    </symbol>
    <symbol id="icon-lightbulb" viewBox="0 0 32 32">
      <path fill="none" stroke="#447d5a" stroke-linecap="round" stroke-linejoin="round" stroke-width="1.939" d="M19.879 18.667c.259-1.333.905-2.267 1.939-3.333 1.293-1.2 1.939-2.933 1.939-4.667 0-2.122-.817-4.157-2.272-5.657S18.057 2.667 16 2.667s-4.031.843-5.485 2.343a8.127 8.127 0 0 0-2.272 5.657c0 1.333.259 2.933 1.939 4.667.905.933 1.681 2 1.939 3.333m0 5.333h7.758m-6.465 5.333h5.172" style="stroke:var(--color1, #447d5a)"/>
    </symbol>
    <symbol id="icon-mail" viewBox="0 0 32 32">
      <path fill="none" stroke="#129f48" stroke-linecap="round" stroke-linejoin="round" stroke-width="3.2" d="M29.333 9.334 17.345 16.97a2.67 2.67 0 0 1-2.678 0l-12-7.636m2.666-4h21.333a2.667 2.667 0 0 1 2.667 2.667v16a2.667 2.667 0 0 1-2.667 2.667H5.333a2.667 2.667 0 0 1-2.667-2.667v-16a2.667 2.667 0 0 1 2.667-2.667z" style="stroke:var(--color5, #129f48)"/>
    </symbol>
    <symbol id="icon-map-pin" viewBox="0 0 32 32">
      <path fill="none" stroke="#129f48" stroke-linecap="round" stroke-linejoin="round" stroke-width="3.2" d="M26.667 13.333c0 6.657-7.385 13.591-9.865 15.732a1.331 1.331 0 0 1-1.602 0c-2.48-2.141-9.865-9.075-9.865-15.732a10.666 10.666 0 0 1 21.333 0z" style="stroke:var(--color5, #129f48)"/>
      <path fill="none" stroke="#129f48" stroke-linecap="round" stroke-linejoin="round" stroke-width="3.2" d="M16 17.333a4 4 0 1 0 0-8 4 4 0 0 0 0 8z" style="stroke:var(--color5, #129f48)"/>
    </symbol>
    <symbol id="icon-sprout" viewBox="0 0 32 32">
      <path fill="none" stroke="#447d5a" stroke-linecap="round" stroke-linejoin="round" stroke-width="3.2" d="M18.667 12.715V9.334A5.332 5.332 0 0 1 24 4.001h2a.665.665 0 0 1 .666.666v2A5.334 5.334 0 0 1 21.333 12 5.334 5.334 0 0 0 16 17.333m0 0c0 2.667 1.333 4 1.333 6.667A6.67 6.67 0 0 1 16 28m0-10.667a6.666 6.666 0 0 0-10.667-5.334A6.666 6.666 0 0 0 16 17.333zM6.667 28h18.667" style="stroke:var(--color1, #447d5a)"/>
    </symbol>
    <symbol id="icon-sun" viewBox="0 0 32 32">
      <path fill="none" stroke="#447d5a" stroke-linecap="round" stroke-linejoin="round" stroke-width="1.939" d="M16 2.667v2.667m0 21.333v2.667M6.859 6.573l1.823 1.88m14.636 15.094 1.823 1.88M3.071 16h2.586m20.686 0h2.586M8.682 23.547l-1.823 1.88M25.141 6.573l-1.823 1.88M21.172 16c0 2.946-2.315 5.333-5.172 5.333S10.828 18.945 10.828 16s2.315-5.333 5.172-5.333c2.856 0 5.172 2.388 5.172 5.333z" style="stroke:var(--color1, #447d5a)"/>
    </symbol>
    <symbol id="icon-wrench" viewBox="0 0 32 32">
      <path fill="none" stroke="#447d5a" stroke-linecap="round" stroke-linejoin="round" stroke-width="2" d="M19.6 8.4a1.333 1.333 0 0 0 0 1.866l2.133 2.133a1.333 1.333 0 0 0 1.866 0l4.141-4.14c.427-.429 1.151-.293 1.311.291a7.994 7.994 0 0 1-2.517 8.203 7.995 7.995 0 0 1-8.495 1.206L7.492 28.506a2.83 2.83 0 0 1-3.999-4.001L14.04 13.958a8.003 8.003 0 0 1 4.942-10.946 8.004 8.004 0 0 1 4.467-.066c.584.16.72.883.292 1.312l-4.143 4.14z" style="stroke:var(--color1, #447d5a)"/>
    </symbol>
    <symbol id="icon-thermometer" viewBox="0 0 32 32" fill="none">
      <path d="M18.6666 5.33329V19.3866C19.6834 19.9737 20.478 20.8798 20.9273 21.9645C21.3766 23.0491 21.4554 24.2518 21.1516 25.3858C20.8477 26.5198 20.1781 27.5219 19.2467 28.2366C18.3153 28.9514 17.174 29.3388 16 29.3388C14.8259 29.3388 13.6847 28.9514 12.7532 28.2366C11.8218 27.5219 11.1522 26.5198 10.8484 25.3858C10.5445 24.2518 10.6233 23.0491 11.0726 21.9645C11.5219 20.8798 12.3165 19.9737 13.3333 19.3866V5.33329C13.3333 4.62605 13.6142 3.94777 14.1143 3.44767C14.6144 2.94758 15.2927 2.66663 16 2.66663C16.7072 2.66663 17.3855 2.94758 17.8856 3.44767C18.3857 3.94777 18.6666 4.62605 18.6666 5.33329Z" stroke="#447D5A" stroke-width="2" stroke-linecap="round" stroke-linejoin="round" />
    </symbol>
  </defs>
</svg>
